<?xml version="1.0" standalone="no"?>
<!DOCTYPE svg PUBLIC "-//W3C//DTD SVG 20010904//EN"
 "http://www.w3.org/TR/2001/REC-SVG-20010904/DTD/svg10.dtd">
<svg version="1.0" xmlns="http://www.w3.org/2000/svg"
 width="300.000000pt" height="100.000000pt" viewBox="0 0 300.000000 100.000000"
 preserveAspectRatio="xMidYMid meet">

<g transform="translate(0.000000,100.000000) scale(0.100000,-0.100000)"
fill="#000000" stroke="none">
<path d="M2867 984 c-15 -16 -7 -53 14 -59 30 -10 58 19 43 43 -12 18 -45 28
-57 16z"/>
<path d="M2542 960 c-27 -11 -39 -37 -24 -52 8 -8 15 -8 26 1 17 15 58 11 63
-5 2 -7 -19 -39 -47 -72 -70 -85 -68 -92 30 -92 73 0 80 2 80 20 0 17 -7 20
-45 20 l-45 0 40 51 c25 32 40 61 40 79 0 49 -58 74 -118 50z"/>
<path d="M2680 945 c0 -18 5 -25 20 -25 19 0 20 -7 20 -90 0 -89 0 -90 25 -90
l25 0 0 115 0 115 -45 0 c-41 0 -45 -2 -45 -25z"/>
<path d="M2960 910 c0 -5 5 -10 10 -10 6 0 10 5 10 10 0 6 -4 10 -10 10 -5 0
-10 -4 -10 -10z"/>
<path d="M2910 881 c0 -18 30 -25 43 -11 9 10 9 11 -1 6 -7 -4 -19 -2 -27 4
-11 9 -15 9 -15 1z"/>
<path d="M2850 805 c-24 -25 -42 -45 -39 -45 3 0 25 20 49 45 24 25 42 45 39
45 -3 0 -25 -20 -49 -45z"/>
<path d="M7 824 c-4 -4 -7 -128 -7 -274 0 -217 3 -270 14 -279 9 -8 45 -11 98
-9 l83 3 5 184 5 184 109 -164 c60 -90 118 -174 129 -186 l20 -23 349 0 348 0
0 75 0 75 -200 0 -200 0 0 35 0 35 188 2 187 3 0 65 0 65 -187 3 -188 2 0 25
0 25 320 0 320 0 0 -205 0 -206 98 3 97 3 3 203 2 202 210 0 210 0 2 -202 3
-203 100 0 100 0 3 202 2 202 118 3 117 3 3 78 3 77 -960 0 -961 0 -2 -182 -3
-183 -120 180 -121 180 -145 3 c-80 1 -148 -1 -152 -4z"/>
<path d="M753 169 c-26 -8 -33 -16 -39 -45 -3 -19 -2 -50 3 -67 7 -26 16 -34
46 -41 59 -15 91 1 95 47 3 36 3 37 -32 37 -37 0 -48 -13 -20 -24 22 -8 7 -26
-22 -26 -21 0 -24 4 -24 40 0 47 13 56 64 42 32 -9 36 -8 36 8 0 10 -3 21 -7
23 -20 12 -71 15 -100 6z"/>
<path d="M1416 167 c-28 -20 -18 -71 14 -75 60 -7 71 -12 68 -35 -2 -18 -11
-23 -41 -25 -26 -2 -39 1 -43 12 -3 9 -10 16 -15 16 -11 0 1 -33 15 -42 19
-13 74 -8 90 8 32 32 13 74 -34 74 -36 0 -63 21 -54 43 8 23 63 23 80 0 13
-17 13 -17 14 0 0 10 -11 22 -26 27 -34 13 -47 13 -68 -3z"/>
<path d="M1890 173 c-24 -9 -30 -25 -30 -80 0 -61 17 -83 63 -83 49 0 60 13
65 73 4 46 1 58 -17 76 -20 20 -50 25 -81 14z m78 -57 c2 -22 1 -50 -3 -63 -5
-21 -11 -24 -43 -21 -37 3 -37 3 -40 52 -4 69 1 78 45 74 36 -3 38 -5 41 -42z"/>
<path d="M2035 166 c-23 -17 -28 -114 -6 -139 16 -20 81 -23 99 -5 7 7 12 39
12 75 0 51 -3 64 -19 73 -27 14 -64 13 -86 -4z m80 -71 l0 -60 -34 -3 c-40 -4
-51 9 -51 60 0 59 8 69 49 66 l36 -3 0 -60z"/>
<path d="M312 85 c-26 -53 -37 -85 -29 -85 7 0 32 38 55 85 26 53 37 85 29 85
-7 0 -32 -38 -55 -85z"/>
<path d="M480 90 l0 -80 53 0 c69 0 88 15 94 72 8 73 -6 88 -82 88 l-65 0 0
-80z m95 5 c0 -36 -3 -40 -27 -43 -26 -3 -28 -1 -28 36 0 45 6 54 35 50 16 -2
20 -10 20 -43z"/>
<path d="M650 90 c0 -73 2 -80 20 -80 18 0 20 7 20 80 0 73 -2 80 -20 80 -18
0 -20 -7 -20 -80z"/>
<path d="M882 93 c3 -70 5 -78 23 -78 18 0 20 8 23 78 3 77 3 77 -23 77 -26 0
-26 0 -23 -77z"/>
<path d="M940 155 c0 -8 9 -15 20 -15 16 0 19 -8 22 -62 3 -55 5 -63 23 -63
18 0 20 8 23 63 3 54 6 62 22 62 11 0 20 7 20 15 0 12 -14 15 -65 15 -51 0
-65 -3 -65 -15z"/>
<path d="M1115 158 c-3 -7 -13 -41 -24 -76 -17 -56 -18 -64 -4 -69 9 -4 21 1
28 10 15 21 64 22 71 2 7 -17 44 -21 44 -4 0 6 -9 42 -21 80 -21 68 -22 69
-55 69 -19 0 -37 -6 -39 -12z m54 -75 c1 -7 -6 -13 -14 -13 -16 0 -19 17 -8
46 6 16 7 16 14 -2 4 -10 8 -25 8 -31z"/>
<path d="M1250 90 l0 -80 55 0 c48 0 55 2 55 20 0 16 -7 20 -35 20 l-35 0 0
60 c0 53 -2 60 -20 60 -18 0 -20 -7 -20 -80z"/>
<path d="M1549 143 c-12 -31 -4 -99 13 -120 13 -16 80 -17 96 -1 7 7 12 21 11
32 0 20 -1 20 -11 -2 -16 -32 -83 -32 -92 1 -10 36 -7 82 6 95 20 20 64 14 82
-10 l16 -23 -2 25 c-3 23 -8 25 -56 28 -49 3 -53 1 -63 -25z"/>
<path d="M1700 89 c0 -51 4 -78 10 -74 6 3 10 22 10 41 0 34 0 34 45 34 45 0
45 0 45 -34 0 -19 5 -38 10 -41 6 -4 10 23 10 74 0 47 -4 81 -10 81 -5 0 -10
-16 -10 -35 0 -35 0 -35 -45 -35 -45 0 -45 0 -45 35 0 19 -4 35 -10 35 -6 0
-10 -34 -10 -81z"/>
<path d="M2170 90 l0 -80 50 0 c28 0 50 5 50 10 0 6 -18 10 -40 10 l-40 0 0
70 c0 40 -4 70 -10 70 -6 0 -10 -33 -10 -80z"/>
<path d="M2350 90 c-45 -89 -45 -90 -27 -90 6 1 31 39 55 85 32 64 39 85 27
85 -9 0 -31 -32 -55 -80z"/>
</g>
</svg>
